# xmcd
#
# Track frame offsets:
#	150
#	13050
#	39332
#	50615
#	63760
#	74357
#	86475
#	110350
#	123372
#	134795
#	150367
#	162990
#
# Disc length: 2321 seconds
#
# Revision: 0
# Processed by: cddbd v1.5.2PL0 Copyright (c) Steve Scherf et al.
# Submitted via: audiograbber 1.83.01
#
DISCID=9b090f0c
DTITLE=Ruby Andrews - Casanova (Your Playing Days Are Over)
DYEAR=1900
DGENRE=Oldies
TTITLE0=Casanova (Your Playing Days Are Over)
TTITLE1=Everybody Saw You
TTITLE2=Help Yourself Lover
TTITLE3=I Guess That Don't Make Me A Loser
TTITLE4=Gotta Break Away
TTITLE5=You Made A Believer Out of Me
TTITLE6=Casanova 70
TTITLE7=Can You Get Away
TTITLE8=You Can Run, But You Can't Hide
TTITLE9=Uh Uh Boy, That's A No No
TTITLE10=Since I Found Out
TTITLE11=Tit For Tat
EXTD=
EXTT0=
EXTT1=
EXTT2=
EXTT3=
EXTT4=
EXTT5=
EXTT6=
EXTT7=
EXTT8=
EXTT9=
EXTT10=
EXTT11=
PLAYORDER=
